<?xml version="1.0" standalone="no"?>
<!DOCTYPE svg PUBLIC "-//W3C//DTD SVG 20010904//EN"
 "http://www.w3.org/TR/2001/REC-SVG-20010904/DTD/svg10.dtd">
<svg version="1.0" xmlns="http://www.w3.org/2000/svg"
 width="472.000000pt" height="472.000000pt" viewBox="0 0 472.000000 472.000000"
 preserveAspectRatio="xMidYMid meet">

<g transform="translate(0.000000,472.000000) scale(0.100000,-0.100000)"
fill="#000000" stroke="none">
<path d="M10 2360 l0 -2350 2350 0 2350 0 0 2350 0 2350 -2350 0 -2350 0 0
-2350z m4679 2273 l0 -58 -215 -140 c-118 -77 -270 -176 -337 -220 -67 -44
-252 -165 -412 -270 -159 -104 -387 -253 -505 -330 -118 -78 -305 -200 -415
-272 -110 -71 -272 -177 -360 -235 -220 -144 -1015 -664 -1150 -752 -60 -39
-192 -125 -292 -191 -100 -66 -256 -168 -345 -226 -90 -59 -262 -171 -383
-251 -121 -79 -226 -147 -233 -152 -9 -6 -12 312 -12 1573 l0 1581 2330 0
2330 0 -1 -57z m-719 -913 c79 -118 223 -378 217 -393 -3 -7 -18 -20 -35 -30
l-31 -17 -99 127 c-105 136 -222 305 -222 322 0 8 97 81 107 81 1 0 30 -40 63
-90z m-241 -101 c17 -27 29 -54 27 -58 -3 -4 -48 -36 -101 -71 l-95 -63 20
-31 c12 -17 31 -48 43 -68 12 -21 25 -38 28 -38 4 0 48 27 98 60 50 33 93 60
95 60 6 0 68 -102 64 -105 -2 -2 -44 -30 -95 -64 l-92 -60 52 -80 c29 -45 57
-81 62 -81 6 0 55 30 109 66 l99 66 17 -22 c23 -31 54 -89 49 -94 -2 -2 -71
-48 -154 -101 -82 -54 -155 -102 -161 -107 -8 -6 -25 12 -52 54 -21 35 -115
177 -207 316 -125 190 -164 257 -156 265 15 15 304 205 313 206 3 1 20 -22 37
-50z m-382 -329 c23 -58 84 -214 137 -347 53 -133 96 -244 96 -247 0 -3 -34
-28 -76 -57 -89 -60 -56 -75 -259 122 -77 75 -194 188 -259 251 l-119 115 61
42 c39 26 67 39 75 34 7 -4 100 -99 206 -210 107 -112 196 -203 198 -203 2 0
-5 17 -16 38 -15 30 -154 344 -207 470 l-14 32 62 40 c35 22 65 36 69 32 3 -4
24 -54 46 -112z m939 -56 l36 -57 -29 -23 c-29 -24 -81 -50 -87 -43 -19 24
-66 100 -66 106 0 8 89 71 102 72 4 1 24 -24 44 -55z m404 -1624 l0 -1580
-2330 0 -2330 0 1 58 0 57 217 141 c228 149 383 251 1015 665 214 140 423 276
465 304 122 79 576 375 802 523 80 53 280 184 445 292 165 108 372 243 460
300 397 261 479 314 702 460 131 85 307 201 393 257 85 57 156 103 158 103 1
0 2 -711 2 -1580z m-1832 1440 c17 -27 32 -52 32 -54 0 -3 -45 -35 -100 -71
-55 -37 -100 -69 -100 -72 0 -3 75 -118 86 -132 2 -2 47 24 99 59 52 35 97 61
99 59 20 -25 56 -87 56 -97 0 -7 -39 -38 -87 -69 -49 -31 -90 -57 -91 -59 -6
-4 101 -164 109 -164 5 0 52 29 106 64 l98 65 23 -27 c13 -15 30 -40 39 -56
13 -25 13 -30 1 -37 -8 -4 -79 -51 -159 -104 -79 -52 -148 -95 -154 -95 -10 0
-40 45 -288 423 -112 170 -128 200 -116 212 15 15 301 204 309 204 3 1 20 -22
38 -49z m-432 -306 c36 -17 80 -67 108 -121 18 -36 22 -123 5 -140 -7 -7 1
-12 29 -16 56 -7 90 -36 158 -132 33 -46 74 -92 93 -103 l34 -20 -73 -48 -72
-48 -25 29 c-13 17 -46 62 -72 100 -66 95 -83 109 -124 102 -18 -3 -54 -17
-79 -33 l-45 -27 84 -128 c46 -71 85 -134 88 -141 3 -8 -19 -28 -52 -50 l-56
-36 -110 166 c-110 166 -287 437 -300 459 -4 7 34 38 106 84 188 123 231 137
303 103z m-525 -314 c46 -13 114 -82 135 -137 10 -26 15 -59 12 -85 -5 -43 -5
-43 29 -45 18 -1 49 -11 68 -23 44 -27 101 -118 116 -185 10 -46 9 -57 -9 -97
-22 -50 -54 -79 -190 -167 l-92 -61 -53 83 c-30 45 -120 183 -201 306 -81 123
-150 230 -153 237 -9 24 231 172 297 183 3 1 21 -4 41 -9z m-585 -488 c39 -59
116 -174 169 -257 54 -82 115 -176 137 -207 l38 -57 -57 -37 -56 -38 -23 29
c-21 29 -131 195 -258 393 -33 50 -61 92 -63 92 -3 0 18 -56 136 -355 50 -126
91 -231 91 -232 0 -1 -17 -14 -37 -28 l-38 -25 -229 227 c-125 126 -220 215
-210 198 10 -16 87 -133 171 -258 84 -126 153 -232 153 -236 0 -9 -97 -71
-111 -71 -5 0 -26 26 -46 58 -20 31 -106 162 -190 291 -149 224 -181 278 -172
284 2 1 31 20 64 43 113 77 85 87 271 -97 91 -89 166 -160 169 -157 3 2 -33
101 -80 218 -46 118 -82 216 -80 218 9 10 170 112 175 112 3 -1 37 -49 76
-108z m-657 -343 c17 -27 29 -55 25 -60 -3 -6 -48 -38 -100 -71 -58 -37 -91
-64 -87 -71 18 -31 84 -127 88 -127 2 0 44 27 94 60 50 33 93 60 95 60 2 0 18
-22 36 -50 28 -44 30 -51 17 -65 -9 -8 -18 -15 -22 -15 -3 0 -39 -23 -80 -50
l-75 -50 53 -80 c28 -44 56 -80 61 -80 4 0 54 30 109 66 75 49 102 62 108 52
4 -7 19 -28 33 -47 14 -19 26 -40 26 -45 0 -9 -251 -182 -315 -218 -9 -6 -32
21 -76 90 -35 53 -128 195 -207 315 -100 152 -141 222 -134 229 14 14 305 206
314 207 3 1 20 -22 37 -50z"/>
<path d="M2275 2605 c-16 -8 -42 -25 -57 -38 l-27 -22 54 -80 c30 -44 59 -79
66 -77 27 7 98 63 104 83 11 35 -4 84 -36 117 -35 35 -59 39 -104 17z"/>
<path d="M1773 2280 c-18 -11 -33 -24 -33 -30 0 -6 23 -45 51 -86 44 -66 53
-74 67 -63 69 52 77 79 41 139 -38 65 -70 75 -126 40z"/>
<path d="M1970 2043 c-8 -3 -27 -14 -42 -25 l-27 -19 56 -87 c30 -48 59 -91
63 -95 11 -12 67 19 86 48 24 36 11 84 -37 139 -39 45 -61 53 -99 39z"/>
</g>
</svg>
